<svg xmlns="http://www.w3.org/2000/svg" viewBox="0 0 721 721"><defs><style>.cls-1{fill:#fc1f2f;}</style></defs><g id="Layer_2" data-name="Layer 2"><g id="Layer_3" data-name="Layer 3"><path class="cls-1" d="M360.5,0C161.4,0,0,161.4,0,360.5S161.4,721,360.5,721,721,559.6,721,360.5,559.6,0,360.5,0Zm-3.83,622.75a61.37,61.37,0,0,1-61.38-61.35H418A61.36,61.36,0,0,1,356.67,622.75ZM572,525.59a31.24,31.24,0,0,1-13,25.58H154.34a31.24,31.24,0,0,1-13-25.58V462.31l32.8-32.25q-.65-10.55-.66-21.32c0-113.08,53.85-208.73,128-240.43a74.49,74.49,0,0,1-.84-11.16c0-35.65,25.16-64.65,56.09-64.65s56.08,29,56.08,64.65a74.09,74.09,0,0,1-1.05,12.48c72.55,33,125,127.56,125,239.11q0,10.78-.66,21.32l36,32.32Z"/></g></g></svg>