<?xml version="1.0" encoding="UTF-8"?> <svg xmlns="http://www.w3.org/2000/svg" width="32" height="32" viewBox="0 0 32 32" fill="none"><circle cx="16" cy="16" r="16" fill="#F2994A"></circle><path d="M21 14.5716V16.0002C21 17.3263 20.4732 18.5981 19.5355 19.5357C18.5979 20.4734 17.3261 21.0002 16 21.0002M16 21.0002C14.6739 21.0002 13.4021 20.4734 12.4645 19.5357C11.5268 18.5981 11 17.3263 11 16.0002V14.5716M16 21.0002V23.8574M13.1429 23.8574H18.8571M16 8.14307C15.4317 8.14307 14.8866 8.36883 14.4848 8.77069C14.0829 9.17256 13.8571 9.7176 13.8571 10.2859V16.0002C13.8571 16.5685 14.0829 17.1136 14.4848 17.5154C14.8866 17.9173 15.4317 18.1431 16 18.1431C16.5683 18.1431 17.1134 17.9173 17.5152 17.5154C17.9171 17.1136 18.1429 16.5685 18.1429 16.0002V10.2859C18.1429 9.7176 17.9171 9.17256 17.5152 8.77069C17.1134 8.36883 16.5683 8.14307 16 8.14307Z" stroke="white" stroke-linecap="round" stroke-linejoin="round"></path></svg> 